<?xml version="1.0" encoding="iso-8859-1"?>
<!-- Generator: Adobe Illustrator 19.0.0, SVG Export Plug-In . SVG Version: 6.00 Build 0)  -->
<svg version="1.1" id="Capa_1" xmlns="http://www.w3.org/2000/svg" xmlns:xlink="http://www.w3.org/1999/xlink" x="0px" y="0px"
	 viewBox="0 0 512 512" style="enable-background:new 0 0 512 512;" xml:space="preserve">
<path style="fill:#10BB67;" d="M345.112,265.301L256,451.026c0,8.4-6.6,15.002-15.002,15.002H14.967
	c-5.401,0-10.202-2.701-12.902-7.201c-2.701-4.502-2.701-10.202-0.3-15.002l132.418-243.934l53.406,14.401l25.805-41.406
	c2.699-4.502,7.801-6.6,12.601-6.6c4.8,0,9.902,2.098,12.601,6.6l25.805,41.406l57.007-19.504l29.105,50.108
	C354.713,252.099,352.314,261.1,345.112,265.301z"/>
<path style="fill:#0CA656;" d="M345.112,265.301L256,451.026c0,8.4-6.6,15.002-15.002,15.002h-15.002V166.287
	c4.8,0,9.902,2.098,12.601,6.6l25.805,41.406l57.007-19.504l29.105,50.108C354.713,252.099,352.314,261.1,345.112,265.301z"/>
<path style="fill:#C5C9F7;" d="M321.409,194.79l-45.905,55.209c-2.701,3.901-7.203,6.6-12.603,6.001
	c-4.8-0.3-9.601-2.701-12.001-6.902l-24.904-39.905l-24.904,39.905c-2.399,4.201-7.201,6.602-12.001,6.902c-0.3,0-0.3,0-0.601,0
	c-4.8,0-9.301-2.401-12.003-6.001l-42.305-50.106l78.611-146.12c2.701-4.802,7.501-7.801,12.902-7.801h0.3
	c4.502,0.599,10.202,2.699,12.902,7.501L321.409,194.79z"/>
<path style="fill:#A8AFF1;" d="M321.409,194.79l-45.905,55.209c-2.701,3.901-7.203,6.6-12.603,6.001
	c-4.8-0.3-9.601-2.701-12.001-6.902l-24.904-39.905V45.97c4.502,0.599,10.202,2.699,12.902,7.501L321.409,194.79z"/>
<path style="fill:#32D736;" d="M509.935,458.529c-2.699,4.8-7.501,7.501-12.902,7.501H225.995c-5.401,0-10.202-2.701-12.902-7.501
	c-2.701-4.502-2.701-10.202-0.3-15.002l88.212-156.623l60.008,20.703l60.008-20.703l89.212,156.623
	C512.636,448.326,512.636,454.027,509.935,458.529z"/>
<path style="fill:#10BB67;" d="M509.935,458.529c-2.699,4.8-7.501,7.501-12.902,7.501H361.014V307.607l60.008-20.703l89.212,156.623
	C512.636,448.326,512.636,454.027,509.935,458.529z"/>
<path style="fill:#E1E4FB;" d="M421.023,286.904l-48.607,53.708c-2.701,3.3-6.9,5.401-11.402,5.401c-4.502,0-8.7-2.1-11.402-5.401
	l-48.607-53.708l15.603-27.603l31.203-55.808c2.701-4.502,7.801-6.902,13.202-6.902c5.401,0,10.5,2.401,13.202,6.902l31.203,55.808
	L421.023,286.904z"/>
<path style="fill:#C5C9F7;" d="M421.023,286.904l-48.607,53.708c-2.701,3.3-6.9,5.401-11.402,5.401V196.59
	c5.401,0,10.5,2.401,13.202,6.902L405.42,259.3L421.023,286.904z"/>
<g>
</g>
<g>
</g>
<g>
</g>
<g>
</g>
<g>
</g>
<g>
</g>
<g>
</g>
<g>
</g>
<g>
</g>
<g>
</g>
<g>
</g>
<g>
</g>
<g>
</g>
<g>
</g>
<g>
</g>
</svg>
