<?xml version="1.0" encoding="iso-8859-1"?>
<!-- Generator: Adobe Illustrator 19.0.0, SVG Export Plug-In . SVG Version: 6.00 Build 0)  -->
<svg version="1.1" id="Capa_1" xmlns="http://www.w3.org/2000/svg" xmlns:xlink="http://www.w3.org/1999/xlink" x="0px" y="0px"
	 viewBox="0 0 511.999 511.999" style="enable-background:new 0 0 511.999 511.999;" xml:space="preserve">
<path style="fill:#A6673A;" d="M498.571,13.181c-17.574-17.574-46.066-17.574-63.64,0c-17.573,17.573-17.573,46.066,0,63.64
	c17.574,17.573,46.066,17.573,63.64,0C516.143,59.247,516.143,30.753,498.571,13.181z M477.356,55.591
	C473.533,59.43,469.065,60,466.751,60s-6.782-0.571-10.591-4.395c-3.838-3.823-4.409-8.291-4.409-10.605s0.571-6.782,4.395-10.591
	c3.823-3.838,8.291-4.409,10.605-4.409s6.782,0.571,10.591,4.395c3.838,3.823,4.409,8.291,4.409,10.605
	S481.179,51.783,477.356,55.591z"/>
<path style="fill:#99522E;" d="M498.571,13.181l-21.224,21.224c3.827,3.82,4.404,8.284,4.404,10.596
	c0,2.314-0.571,6.782-4.395,10.591C473.533,59.43,469.065,60,466.751,60s-6.782-0.571-10.591-4.395
	c-0.004-0.004-0.002-0.005-0.002-0.005l-21.227,21.22c17.574,17.573,46.066,17.573,63.64,0
	C516.143,59.247,516.143,30.753,498.571,13.181z"/>
<path style="fill:#F9BC35;" d="M332.713,412.882L99.368,179.536l158.856-133.9c59.186-48.154,144.038-43.91,197.92,9.971
	s57.913,138.946,9.759,197.707L332.713,412.882z"/>
<path style="fill:#F39E31;" d="M332.713,412.882L216.041,296.209L456.144,55.608c53.881,53.881,57.913,138.946,9.759,197.707
	L332.713,412.882z"/>
<path style="fill:#FFDE33;" d="M394.838,245.465c-5.092,6.364-14.638,7.424-21.001,2.333c-6.577-5.303-7.425-14.637-2.122-21.214
	l24.607-30.122c18.88-23.122,17.183-56.214-3.818-77.215c-5.94-5.94-5.939-15.274,0-21.213c5.94-5.94,15.273-5.94,21.213,0
	c32.032,32.032,34.579,82.518,5.94,117.519L394.838,245.465z"/>
<path style="fill:#F9BC35;" d="M214.98,403.336l-10.607,10.607c-29.274,29.274-76.792,29.274-106.066,0s-29.274-76.792,0-106.066
	l10.607-10.607L214.98,403.336z"/>
<path style="fill:#FFBC33;" d="M394.838,245.465c-5.092,6.364-14.638,7.424-21.001,2.333c-6.577-5.303-7.425-14.637-2.122-21.214
	l24.607-30.122c18.88-23.122,17.183-56.214-3.818-77.215l21.213-21.213c32.032,32.032,34.579,82.518,5.94,117.519L394.838,245.465z"
	/>
<path style="fill:#F39E31;" d="M214.98,403.336l-10.607,10.607c-29.274,29.274-76.792,29.274-106.066,0l63.64-63.64L214.98,403.336z
	"/>
<path style="fill:#FFDE33;" d="M343.532,413.094c-0.848-1.273-3.606-8.699-5.302-10.396L109.551,174.02
	c-1.696-1.696-9.123-4.454-10.396-5.302c-29.061-15.062-62.578-11.244-85.701,11.879c-17.606,17.606-17.607,46.032,0,63.64
	l254.558,254.558c17.607,17.607,46.034,17.606,63.64,0C354.776,475.672,358.594,442.155,343.532,413.094z"/>
<path style="fill:#FFBC33;" d="M331.653,498.795c-17.606,17.606-46.032,17.607-63.64,0L140.734,371.516l83.157-83.157
	l114.339,114.34c1.696,1.696,4.454,9.123,5.302,10.396C358.594,442.155,354.776,475.672,331.653,498.795z"/>
<g>
</g>
<g>
</g>
<g>
</g>
<g>
</g>
<g>
</g>
<g>
</g>
<g>
</g>
<g>
</g>
<g>
</g>
<g>
</g>
<g>
</g>
<g>
</g>
<g>
</g>
<g>
</g>
<g>
</g>
</svg>
